HIERARCHY
ROOT Hips
{
	OFFSET 0.0000 0.0000 0.0000
	CHANNELS 6 Xposition Yposition Zposition Zrotation Xrotation Yrotation
	JOINT Spine1
	{
		OFFSET -0.0137 5.0038 -0.0537
		CHANNELS 3 Zrotation Xrotation Yrotation
		JOINT Spine2
		{
			OFFSET -0.0000 7.1253 -0.0298
			CHANNELS 3 Zrotation Xrotation Yrotation
			JOINT Chest
			{
				OFFSET -0.0000 7.5501 -0.8160
				CHANNELS 3 Zrotation Xrotation Yrotation
				JOINT Neck1
				{
					OFFSET -0.1817 26.3113 -0.5533
					CHANNELS 3 Zrotation Xrotation Yrotation
					JOINT Neck2
					{
						OFFSET -0.0000 7.7094 2.3026
						CHANNELS 3 Zrotation Xrotation Yrotation
						JOINT Head
						{
							OFFSET -0.0000 6.1289 1.9537
							CHANNELS 3 Zrotation Xrotation Yrotation
							JOINT Jaw
							{
								OFFSET 0.0026 0.4756 3.0949
								CHANNELS 3 Zrotation Xrotation Yrotation
								End Site
								{
									OFFSET 0.0 1.0 0.0
								}
							}
							JOINT LeftEye
							{
								OFFSET 3.2064 5.3802 7.5869
								CHANNELS 3 Zrotation Xrotation Yrotation
								End Site
								{
									OFFSET 0.0 1.0 0.0
								}
							}
							JOINT RightEye
							{
								OFFSET -3.2224 5.3619 7.5582
								CHANNELS 3 Zrotation Xrotation Yrotation
								End Site
								{
									OFFSET 0.0 1.0 0.0
								}
							}
						}
					}
				}
				JOINT LeftShoulder
				{
					OFFSET 1.6217 23.2372 5.1134
					CHANNELS 3 Zrotation Xrotation Yrotation
					JOINT LeftArm
					{
						OFFSET 14.9198 0.0000 -5.5023
						CHANNELS 3 Zrotation Xrotation Yrotation
						JOINT LeftForeArm
						{
							OFFSET 28.7393 0.0000 -0.0026
							CHANNELS 3 Zrotation Xrotation Yrotation
							JOINT LeftHand
							{
								OFFSET 27.0940 -0.0000 0.0026
								CHANNELS 3 Zrotation Xrotation Yrotation
								JOINT LeftHandThumbEnd
								{
									OFFSET 12.2686 -3.2202 4.8331
									CHANNELS 3 Zrotation Xrotation Yrotation
									End Site
									{
										OFFSET 0.0 1.0 0.0
									}
								}
								JOINT LeftHandMiddleEnd
								{
									OFFSET 19.0120 -0.3129 -0.0340
									CHANNELS 3 Zrotation Xrotation Yrotation
									End Site
									{
										OFFSET 0.0 1.0 0.0
									}
								}
							}
						}
					}
				}
				JOINT RightShoulder
				{
					OFFSET -1.3801 23.1803 5.2142
					CHANNELS 3 Zrotation Xrotation Yrotation
					JOINT RightArm
					{
						OFFSET -15.0372 0.0000 -5.5456
						CHANNELS 3 Zrotation Xrotation Yrotation
						JOINT RightForeArm
						{
							OFFSET -28.7366 0.0000 -0.0026
							CHANNELS 3 Zrotation Xrotation Yrotation
							JOINT RightHand
							{
								OFFSET -27.1336 -0.0000 0.0026
								CHANNELS 3 Zrotation Xrotation Yrotation
								JOINT RightHandThumbEnd
								{
									OFFSET -12.2642 -3.2115 4.8040
									CHANNELS 3 Zrotation Xrotation Yrotation
									End Site
									{
										OFFSET 0.0 1.0 0.0
									}
								}
								JOINT RightHandMiddleEnd
								{
									OFFSET -19.0006 -0.3066 -0.0316
									CHANNELS 3 Zrotation Xrotation Yrotation
									End Site
									{
										OFFSET 0.0 1.0 0.0
									}
								}
							}
						}
					}
				}
			}
		}
	}
	JOINT LeftLeg
	{
		OFFSET 10.0432 -8.4345 2.5957
		CHANNELS 3 Zrotation Xrotation Yrotation
		JOINT LeftShin
		{
			OFFSET -0.0000 -43.2218 -0.8029
			CHANNELS 3 Zrotation Xrotation Yrotation
			JOINT LeftFoot
			{
				OFFSET 0.0000 -42.1551 -3.4815
				CHANNELS 3 Zrotation Xrotation Yrotation
				JOINT LeftToeBase
				{
					OFFSET 0.0000 -5.0595 13.2315
					CHANNELS 3 Zrotation Xrotation Yrotation
					End Site
					{
						OFFSET 0.0 1.0 0.0
					}
				}
			}
		}
	}
	JOINT RightLeg
	{
		OFFSET -10.0473 -8.2953 2.6203
		CHANNELS 3 Zrotation Xrotation Yrotation
		JOINT RightShin
		{
			OFFSET 0.0000 -43.3622 -0.8056
			CHANNELS 3 Zrotation Xrotation Yrotation
			JOINT RightFoot
			{
				OFFSET 0.0000 -42.1174 -3.4784
				CHANNELS 3 Zrotation Xrotation Yrotation
				JOINT RightToeBase
				{
					OFFSET -0.0000 -5.0796 13.2842
					CHANNELS 3 Zrotation Xrotation Yrotation
					End Site
					{
						OFFSET 0.0 1.0 0.0
					}
				}
			}
		}
	}
}
MOTION
Frames: 16
Frame Time: 0.033333
1.8134 94.9615 6.4016 -4.4899 -1.2042 4.8312 -0.1263 3.0420 -0.7695 -0.4654 -3.6882 -1.5117 -4.9566 8.5966 -5.6870 7.0937 -5.4758 -0.5258 -2.1609 -3.5427 -4.5323 -0.0520 -10.7130 -7.8546 0.0255 -0.0180 0.0193 0.7240 -10.6245 -3.8808 -0.6805 -10.6247 3.8721 11.0513 8.0626 -14.9472 -25.8027 -54.0663 -67.2508 0.5747 1.5671 -106.0545 13.2711 -10.6426 -16.3479 -15.6396 11.3053 15.6658 -60.6133 1.2954 2.2007 -21.0473 4.2272 14.6557 -29.1836 -63.2346 46.7501 1.4948 -3.9570 78.9588 -51.0769 6.0096 2.4891 15.2779 7.8267 -16.3635 50.2004 -3.0986 -5.8967 22.2611 -4.3599 18.4937 -0.0365 21.0097 -0.6637 -21.1252 -13.4217 8.4339 1.6560 0.2924 -2.0658 -6.1755 -24.6584 -31.5733 0.2196 21.5492 0.2445 6.7735 8.6912 -3.6262 -1.4460 0.9048 0.9053
1.4834 94.9726 6.5386 -4.2717 -0.8935 5.1483 0.1825 3.2401 -0.6957 -0.3685 -3.6084 -1.3909 -4.8649 8.4386 -5.6635 7.2982 -5.7780 -0.6211 -2.2986 -3.5543 -4.8251 0.0818 -10.7591 -8.5335 0.0319 -0.0198 0.0329 0.7401 -10.6323 -3.8755 -0.6835 -10.6207 3.8912 11.0269 7.9068 -14.8777 -25.9362 -54.4132 -66.6013 0.3617 1.6012 -106.7570 13.5456 -9.7972 -16.5104 -15.6656 11.3257 15.7156 -60.6328 1.2552 2.2644 -22.8202 4.3510 15.5707 -30.8688 -63.5092 46.5934 1.4265 -3.3691 79.9739 -48.9643 8.9349 1.6986 15.4954 7.8818 -16.2374 50.4473 -3.0379 -5.8775 22.1580 -4.5041 18.3792 -0.0434 20.6335 -0.6554 -21.1582 -13.0715 8.2654 1.6484 0.2693 -2.0712 -6.1012 -25.3093 -31.9441 0.2441 22.4548 0.3129 6.5639 8.1355 -3.7914 -1.4464 0.8470 0.9095
1.0965 94.9604 6.6181 -4.0440 -0.5597 5.5195 0.4892 3.4915 -0.6344 -0.2859 -3.4868 -1.2438 -4.7531 8.3218 -5.6819 7.4798 -5.8751 -0.6441 -2.4427 -3.5876 -5.1136 0.2751 -10.8643 -9.0637 0.0393 -0.0190 0.0563 0.7555 -10.6255 -3.8532 -0.6839 -10.6003 3.9121 10.9662 7.7448 -14.7079 -26.1199 -54.6751 -65.6731 0.0016 1.6245 -107.5492 13.6864 -8.9246 -16.6694 -15.7528 11.3095 15.7688 -60.7311 1.2212 2.3200 -24.5301 4.6202 16.4191 -31.4214 -63.8592 44.8720 1.0714 -2.6219 81.5134 -46.6637 11.8783 1.5319 15.7713 7.9487 -16.0978 50.8934 -2.9886 -5.8735 22.0619 -4.7460 18.1241 -0.0526 20.3657 -0.6607 -21.1705 -12.7250 8.1667 1.6469 0.1810 -2.0920 -5.9978 -26.0189 -32.2712 0.2856 23.4273 0.3994 6.3044 7.5519 -4.0254 -1.4473 0.8353 0.9108
0.6771 94.9443 6.6678 -3.8307 -0.2017 5.9485 0.7661 3.8557 -0.5524 -0.2061 -3.3439 -1.1900 -4.6536 8.2578 -5.7141 7.6227 -5.7077 -0.6114 -2.5695 -3.6267 -5.3272 0.5687 -11.0131 -9.4625 0.0442 -0.0286 0.0750 0.7623 -10.6400 -3.8368 -0.6794 -10.6014 3.9334 10.8686 7.6916 -14.4210 -25.9360 -54.6863 -64.7966 -0.3652 1.7579 -108.2966 13.7107 -8.0967 -16.8168 -15.8476 11.2486 15.7836 -60.8410 1.1900 2.3222 -26.0389 5.0963 17.0954 -30.3283 -64.6963 41.0458 0.4656 -1.8731 83.5380 -44.5037 14.5260 2.0656 15.9921 8.0591 -15.9307 51.3373 -2.9388 -5.7810 21.9695 -5.2303 17.7537 -0.0721 20.3943 -0.7166 -21.1409 -12.4453 8.0877 1.6500 -0.0430 -2.1225 -5.8522 -26.7720 -32.5190 0.3313 24.4549 0.4688 6.0134 6.9959 -4.3363 -1.4471 0.8559 0.9059
0.1899 94.9167 6.5855 -3.6459 0.2040 6.4553 0.9887 4.3885 -0.4524 -0.1344 -3.1799 -1.2201 -4.5935 8.2522 -5.7638 7.6958 -5.1853 -0.5126 -2.6657 -3.6588 -5.4924 0.9703 -11.2175 -9.7695 0.0449 -0.0406 0.0806 0.7521 -10.6403 -3.8257 -0.6666 -10.5945 3.9338 10.7868 7.7903 -14.1195 -25.1350 -54.5962 -63.9766 -0.6993 2.0375 -108.8550 13.7512 -7.4707 -16.9497 -15.8874 11.1822 15.7981 -60.9715 1.1852 2.2658 -27.2395 5.7792 17.4240 -27.0124 -66.6413 34.5228 -0.3535 -1.2378 85.7733 -43.0577 16.5938 2.9408 16.0065 8.2954 -15.8098 51.6413 -2.8756 -5.6287 21.9149 -6.1061 17.2606 -0.0946 20.9160 -0.7766 -21.0403 -12.2604 7.9661 1.6532 -0.3593 -2.1552 -5.6001 -27.6038 -32.8301 0.3687 25.4567 0.5178 5.7617 6.5237 -4.7681 -1.4491 0.8703 0.9039
-0.3585 94.8065 6.3418 -3.5222 0.7646 7.1963 1.1492 5.1772 -0.3612 -0.0758 -2.9669 -1.2969 -4.5587 8.3087 -5.8744 7.6936 -4.2103 -0.3523 -2.7221 -3.6923 -5.6094 1.4810 -11.5505 -10.0161 0.0407 -0.0498 0.0615 0.7236 -10.6285 -3.8267 -0.6452 -10.5807 3.9007 10.6904 7.8394 -13.9473 -23.5137 -54.3641 -63.1848 -0.9766 2.0958 -109.1536 13.9866 -7.2015 -17.1024 -15.7684 11.1094 15.8612 -60.8557 1.1756 2.1925 -27.8174 6.5487 17.1923 -19.5092 -69.9926 23.4783 -1.5403 -0.8848 87.9664 -43.2987 18.6042 2.7283 15.7031 8.8391 -15.6811 51.5771 -2.8301 -5.4160 21.8909 -7.7716 16.5413 -0.1231 22.2579 -0.8528 -20.8137 -12.3865 7.7317 1.6525 -0.6147 -2.1891 -5.1438 -28.6560 -33.3829 0.3814 26.5748 0.5307 5.6909 5.9808 -5.2952 -1.4529 0.8991 0.9053
-0.9451 94.5863 5.8492 -3.4324 1.5666 8.1156 1.1752 6.1616 -0.3195 -0.0614 -2.7092 -1.3774 -4.5536 8.5070 -6.0445 7.6936 -2.7767 -0.1967 -2.7571 -3.7341 -5.6708 2.2023 -12.0242 -10.1460 0.0341 -0.0463 0.0395 0.6984 -10.6050 -3.8249 -0.6317 -10.5558 3.8602 10.4606 7.8061 -14.0965 -21.4447 -54.1993 -61.7990 -1.3763 1.7235 -109.3711 14.7046 -7.7401 -17.4276 -15.4303 11.0290 16.0186 -60.3436 1.1477 2.1298 -27.0606 7.2257 16.2156 -3.0170 -74.0030 3.8551 -3.1894 -0.9748 90.1185 -46.1674 20.7140 0.0942 15.0629 9.4943 -15.4482 50.6091 -2.8458 -5.2052 21.8234 -10.2543 15.5872 -0.1583 24.3437 -0.9409 -20.4254 -12.9005 7.5052 1.6472 -0.7346 -2.2065 -4.3927 -30.1417 -34.2846 0.3754 27.8759 0.5225 5.6966 5.4781 -5.8725 -1.4609 0.9862 0.9068
-1.4903 94.2846 5.0538 -3.3619 2.6696 9.0603 1.0657 7.2350 -0.2827 -0.1034 -2.4313 -1.5576 -4.5025 8.9651 -6.3124 7.6805 -0.9633 -0.0193 -2.7575 -3.7398 -5.7398 2.9894 -12.5864 -10.0201 0.0224 -0.0324 0.0207 0.6769 -10.5981 -3.8195 -0.6315 -10.5477 3.8293 10.1685 7.9364 -14.5198 -19.6290 -54.3369 -59.0384 -1.7690 0.9804 -109.8946 16.1549 -9.7439 -18.1310 -14.9877 11.0312 16.2134 -59.7489 1.2008 2.0370 -24.7890 7.8199 14.6648 29.6724 -75.4732 -31.0040 -4.7397 -1.1488 92.4157 -50.8351 20.7928 -4.2513 14.6437 9.5385 -15.1470 48.9718 -3.0461 -5.1349 21.6700 -13.5254 14.5557 -0.2201 27.0266 -1.0643 -19.8728 -13.6533 7.2270 1.6427 -0.7802 -2.2041 -3.2100 -32.1683 -35.6405 0.3351 29.3610 0.4800 5.6336 5.0996 -6.3229 -1.4722 1.1239 0.9092
-1.9254 93.8376 3.9652 -3.3094 3.9615 9.6712 0.8593 8.3407 -0.3539 -0.1882 -2.1242 -1.7287 -4.3366 9.7462 -6.6816 7.5055 1.0316 0.2826 -2.7116 -3.7350 -5.9197 3.7082 -13.0821 -9.5509 0.0071 -0.0187 0.0254 0.6588 -10.6128 -3.7955 -0.6424 -10.5581 3.8249 10.0942 8.4996 -15.1649 -19.0237 -55.0397 -54.0093 -1.7381 0.0996 -110.9542 18.1073 -13.0643 -19.3460 -14.6228 11.0984 16.3254 -59.4501 1.2668 1.9271 -21.2236 8.5802 12.9775 60.5239 -70.4734 -62.4386 -5.0785 -0.8058 93.9962 -54.4360 15.0088 -6.1792 14.7493 8.6101 -15.1005 47.8100 -3.3349 -5.1907 21.4537 -17.4129 13.6560 -0.2872 30.3894 -1.1507 -19.1237 -14.5838 7.0685 1.6425 -0.8394 -2.1759 -1.6024 -34.7038 -37.2958 0.3131 31.0803 0.4414 5.3698 4.8643 -6.4499 -1.4829 1.2574 0.8832
-2.1371 93.1291 2.6625 -3.2174 5.2472 9.6546 0.6247 9.5085 -0.5913 -0.3024 -1.8034 -1.8418 -4.0760 10.7584 -7.0192 6.9774 2.9818 0.6473 -2.5666 -3.7948 -6.0604 4.2589 -13.3066 -8.8915 -0.0188 -0.0183 0.0813 0.6383 -10.6228 -3.7233 -0.6729 -10.5684 3.8786 10.2788 9.3491 -15.8009 -20.2278 -56.0259 -46.8322 -1.1989 -0.3941 -112.5310 20.1020 -17.3143 -20.9193 -14.4577 11.2547 16.3956 -59.7023 1.2556 2.0017 -16.5397 9.6717 11.5549 74.1603 -62.3635 -73.8965 -3.8583 0.3507 93.5179 -55.4408 2.6077 -2.3909 14.8432 7.3391 -15.1445 47.4977 -3.5583 -5.2522 21.1677 -21.6027 13.1537 -0.3720 34.5039 -1.1856 -18.3070 -15.8134 6.8686 1.6444 -0.8802 -2.1258 0.2765 -37.7549 -39.0680 0.3293 33.2440 0.3985 4.8069 4.6782 -6.2778 -1.4853 1.2672 0.8777
-2.0913 92.0491 1.0734 -2.8771 6.5372 8.6266 0.3832 10.6691 -0.8437 -0.3496 -1.5084 -1.8520 -3.8057 12.1000 -7.0414 5.9276 4.2267 0.9569 -2.4951 -3.7708 -5.9047 4.6445 -13.5603 -8.8129 -0.0529 -0.0267 0.1936 0.6083 -10.6002 -3.5963 -0.7131 -10.5597 3.9888 10.1010 10.2061 -16.3509 -22.1009 -56.3224 -39.3087 -0.6212 -0.5768 -114.2995 20.9209 -20.1691 -22.3606 -14.1467 11.4185 16.2876 -60.0204 1.2560 2.2531 -11.1118 10.8527 10.7710 78.5792 -55.9976 -73.2122 -1.7698 1.0968 91.1824 -55.8758 -11.3096 5.0353 14.8708 6.7505 -14.9496 47.7803 -3.3952 -5.1702 20.5031 -26.0453 13.4143 -0.4518 39.5630 -1.1492 -18.0964 -17.3930 6.6067 1.6666 -0.6836 -2.1130 2.3647 -41.7948 -40.7182 0.3552 36.2560 0.3344 4.3052 4.3021 -5.5697 -1.4818 1.1428 0.8306
-1.7235 90.6601 -0.5079 -2.2095 7.8976 6.5086 0.1892 11.8490 -1.0103 -0.5105 -1.1435 -1.8705 -3.5354 13.3869 -6.7709 4.3335 4.6989 1.2569 -2.1687 -3.8433 -5.8160 5.0280 -14.3160 -8.6021 -0.0919 -0.0288 0.2010 0.6123 -10.5419 -3.5739 -0.7955 -10.5226 3.9950 9.2762 10.7640 -16.1714 -24.6306 -55.8503 -32.6110 -0.4375 -0.8558 -116.0771 19.1218 -20.4893 -22.3545 -14.0455 11.4613 16.1823 -59.9526 1.4503 2.6870 -6.8882 12.0230 10.6971 80.7247 -51.9868 -67.6771 -0.2754 0.9453 88.5396 -55.9452 -20.3619 13.4783 14.5828 6.4311 -14.7761 47.8578 -3.3796 -4.9897 18.9745 -30.0245 14.9069 -0.4863 44.3384 -1.0531 -18.4697 -19.5517 7.1513 1.6279 -0.1021 -2.0661 4.5922 -46.3900 -41.8130 0.3383 38.9410 0.2945 3.3394 4.2456 -4.6535 -1.4605 1.5279 0.8675
-1.1060 89.5066 -2.1339 -1.2907 9.4867 4.1192 0.0263 12.7504 -1.0058 -0.6162 -0.7001 -1.7505 -3.4882 14.8497 -6.6345 2.9855 4.4856 1.4303 -2.0854 -3.8827 -5.5588 5.2131 -15.6403 -8.7724 -0.1140 -0.0584 0.1993 0.6178 -10.4647 -3.5656 -0.8463 -10.4736 3.9900 8.1140 11.3861 -15.7096 -26.9681 -54.8802 -27.6158 -0.6246 -0.8881 -116.8863 15.5521 -17.7796 -21.0299 -14.1519 11.5342 15.9667 -59.9069 1.6887 2.7399 -4.3365 12.9786 10.9502 80.4157 -49.2055 -59.2233 0.4194 -0.0835 85.5814 -55.8596 -24.7189 20.0974 14.6234 6.4129 -14.7201 48.6115 -3.3195 -4.8070 16.7625 -33.9706 17.3693 -0.5249 48.7777 -1.0451 -18.7025 -21.0602 7.5487 1.6104 0.3391 -2.0075 6.8139 -51.1988 -42.5843 0.2806 41.0952 0.2351 2.8739 5.0239 -3.7012 -1.4441 1.5175 0.8668
-0.4618 88.6289 -3.5289 -0.3884 11.1776 2.2283 -0.0201 13.4884 -0.9669 -0.7113 -0.2148 -1.6259 -3.3807 16.1975 -6.5440 2.0114 4.4049 1.5421 -2.0353 -3.9066 -5.4439 5.4400 -16.9116 -9.0984 -0.1280 -0.0918 0.2012 0.5990 -10.3861 -3.5424 -0.8569 -10.4159 3.9779 7.4134 11.7867 -15.2299 -30.6932 -53.9060 -23.0441 -0.8872 -0.8023 -116.1372 11.3788 -13.3968 -19.1034 -14.4369 11.6005 15.8486 -60.5656 1.7948 2.7158 -3.5411 13.7730 11.1377 79.9101 -46.4808 -50.9181 0.7707 -0.8432 82.2717 -53.3617 -26.8235 22.3687 14.4261 6.5454 -14.9629 49.3979 -3.4401 -4.8382 14.1742 -37.3693 19.9833 -0.5587 52.0264 -1.0442 -18.4560 -21.9607 7.6440 1.6078 0.6124 -1.9761 8.9712 -55.2268 -43.5181 0.2632 41.9429 0.1840 2.6958 6.2521 -2.8802 -1.4367 1.5362 0.8652
0.1087 87.9403 -4.7665 0.3452 12.8823 1.0301 0.0708 14.0548 -0.8822 -0.7359 0.2721 -1.5790 -3.0852 17.4084 -6.3467 1.4759 4.5849 1.5828 -1.9488 -3.8959 -5.5253 5.6548 -17.8707 -9.4019 -0.1365 -0.1112 0.1906 0.5670 -10.3222 -3.5377 -0.8430 -10.3739 3.9575 7.1053 12.0029 -14.8579 -34.5826 -53.1015 -19.6183 -0.9383 -0.8020 -114.3926 7.6420 -8.0431 -16.8444 -14.8548 11.5096 15.7240 -61.3096 1.8586 2.5925 -3.3344 14.3688 11.3139 79.1278 -44.3382 -43.3170 0.9314 -0.8374 78.6228 -48.7195 -26.6616 20.6352 14.1238 6.8471 -15.3685 49.6080 -3.5705 -4.8804 11.6304 -40.4600 22.3060 -0.6000 54.4580 -1.0261 -17.9425 -22.4680 7.3280 1.6098 0.6743 -1.9633 11.1080 -58.4871 -44.6614 0.2104 42.0433 0.0734 2.6788 7.4957 -2.2986 -1.4343 1.6303 0.8717
0.6011 87.4105 -5.8444 0.9579 14.3341 0.4413 0.2117 14.5206 -0.7976 -0.7095 0.7038 -1.5855 -2.6257 18.5611 -6.0844 1.3570 5.1489 1.6023 -1.8570 -3.8860 -5.6980 5.8678 -18.5465 -9.6681 -0.1401 -0.1198 0.1697 0.5325 -10.2801 -3.5524 -0.8161 -10.3478 3.9340 7.0055 12.1951 -14.5339 -37.2303 -52.5024 -18.2291 -0.6880 -0.8129 -112.3094 4.9002 -2.9210 -14.7809 -15.1735 11.3051 15.5776 -61.6603 1.9489 2.4814 -3.0877 14.8578 11.6339 78.3822 -43.1858 -36.8480 0.8227 -0.4974 75.4540 -44.6405 -24.2429 18.1533 14.1149 7.0490 -15.5821 49.4881 -3.6678 -4.8969 9.3181 -43.0172 24.1710 -0.6306 56.1635 -0.9825 -17.3384 -22.6703 6.9082 1.6129 0.5669 -1.9571 12.8213 -61.0164 -45.6408 0.1409 41.8040 -0.0395 2.7701 8.5201 -2.0767 -1.4330 1.7123 0.9003
